<?xml version="1.0" encoding="UTF-8"?><svg id="Ebene_1" xmlns="http://www.w3.org/2000/svg" xmlns:xlink="http://www.w3.org/1999/xlink" viewBox="0 0 200 100"><defs><style>.cls-1{clip-path:url(#clippath);}.cls-2{fill:none;}.cls-2,.cls-3{stroke-width:0px;}.cls-4{clip-path:url(#clippath-1);}.cls-3{fill:#020102;}</style><clipPath id="clippath"><rect class="cls-2" width="200" height="100"/></clipPath><clipPath id="clippath-1"><rect class="cls-2" width="200" height="100"/></clipPath></defs><g class="cls-1"><g class="cls-4"><path class="cls-3" d="M177.22,75.48c3.17-4.37,5.8-8.89,7.88-13.54,2.07-4.65,3.11-7.67,3.11-9.07,0-2.15-.93-3.23-2.77-3.23-4.4,0-10.3,2.88-17.7,8.62-.25.2-.54.3-.86.3s-.54-.2-.64-.6c0-.5.6-1.62,1.8-3.38,1.2-1.75,1.8-2.89,1.8-3.41s-.66-.79-1.99-.79-2.41.25-3.26.75c-1.6.6-4.85,4.84-9.75,12.71-4.9,7.88-7.35,12.46-7.35,13.76,0,.65.65.97,1.95.97,2.4,0,4.2-.84,5.4-2.51s3.04-3.84,5.51-6.49c2.47-2.65,5.35-5.22,8.62-7.72,3.27-2.5,5.89-3.75,7.84-3.75.4.05.7.19.9.41.2.23.3.54.3.94,0,1.25-1.08,3.96-3.23,8.14-2.15,4.18-4.73,8.51-7.73,13.01l-.15.45c0,.65.7.98,2.1.98,2.3,0,5.04-2.19,8.21-6.56M137.06,80.47c.45,0,.7-.3.75-.9.3-2,1.31-4.71,3.04-8.14,1.72-3.43,3.06-5.89,4.01-7.39s1.61-2.54,1.99-3.11c.38-.57.56-.89.56-.94,0-.65-.93-1.05-2.77-1.2-1.3,0-2.43.2-3.38.6-.95.4-1.5.83-1.65,1.28-2.25,3.9-4.55,6.89-6.9,8.96-2.35,2.08-4.28,3.11-5.78,3.11-.5,0-.89-.2-1.16-.6-.28-.4-.41-.83-.41-1.27,0-3.5,1.76-7.04,5.29-10.61,3.52-3.58,7.26-5.36,11.21-5.36,3,0,5.2.48,6.6,1.42.75.55,1.35.83,1.8.83.85,0,1.27-.71,1.27-2.14s-.65-2.62-1.95-3.6c-1.3-.97-2.88-1.46-4.73-1.46-3.5,0-6.85.69-10.05,2.06-3.2,1.38-5.91,3.12-8.14,5.25-2.23,2.12-4.19,4.44-5.89,6.94-3.3,4.95-4.95,9.33-4.95,13.12,0,3.05,1.04,4.58,3.11,4.58s4.15-.66,6.22-1.99c2.07-1.33,3.8-2.64,5.18-3.94,1.37-1.3,2.29-1.95,2.74-1.95.3,0,.45.2.45.6l-.15,1.57c0,2.85,1.22,4.28,3.67,4.28M123.41,45.56c1.45-.98,2.18-2.21,2.18-3.71-.1-1.75-1.25-2.62-3.45-2.62-1.45,0-2.91.48-4.39,1.42-1.47.95-2.21,2.17-2.21,3.67v.08c.1,1.75,1.25,2.62,3.45,2.62,1.5,0,2.97-.49,4.43-1.46M103.53,81.22c1.85-3.9,4.6-8.97,8.25-15.22,3.65-6.25,6.42-10.58,8.32-12.98.15-.15.23-.33.23-.52,0-.4-.34-.71-1.01-.94-.68-.22-1.31-.34-1.91-.34-3.15,0-5.53.48-7.12,1.42-.9.6-1.35,1.25-1.35,1.95-.1,2.25-1.79,6.56-5.06,12.94-3.27,6.38-4.91,9.91-4.91,10.61,0,1.25.42,2.31,1.27,3.19.85.87,1.62,1.31,2.33,1.31.4,0,.72-.48.97-1.42M84.03,87.52c.25.95.67,1.74,1.28,2.36.6.62,1.32.94,2.18.94.45,0,.67-.38.67-1.12,0-5.1,1.69-11.67,5.06-19.72,3.38-8.05,7.3-15.7,11.78-22.95,4.47-7.25,8.71-13.69,12.71-19.31s6.85-9.21,8.55-10.76c.3-.3.45-.57.45-.82-.05-.8-.8-1.2-2.25-1.2s-3.08.42-4.88,1.27c-1.8.85-3.12,1.95-3.98,3.3-5.5,8.5-10.85,17.07-16.05,25.72-3.5,5.85-6.28,10.78-8.32,14.78-2.05,4-3.9,8.11-5.55,12.34-1.65,4.23-2.48,7.34-2.48,9.34s.28,3.95.83,5.85M68.28,87.52c.25.95.67,1.74,1.28,2.36.6.62,1.32.94,2.18.94.45,0,.67-.38.67-1.12,0-5.1,1.69-11.67,5.06-19.72,3.38-8.05,7.3-15.7,11.78-22.95,4.47-7.25,8.71-13.69,12.71-19.31s6.85-9.21,8.55-10.76c.3-.3.45-.57.45-.82-.05-.8-.8-1.2-2.25-1.2s-3.08.42-4.88,1.27c-1.8.85-3.12,1.95-3.97,3.3-5.5,8.5-10.85,17.07-16.05,25.72-3.5,5.85-6.28,10.78-8.32,14.78-2.05,4-3.9,8.11-5.55,12.34-1.65,4.23-2.48,7.34-2.48,9.34s.28,3.95.83,5.85M74.36,45.56c1.45-.98,2.17-2.21,2.17-3.71-.1-1.75-1.25-2.62-3.45-2.62-1.45,0-2.91.48-4.39,1.42-1.47.95-2.21,2.17-2.21,3.67v.08c.1,1.75,1.25,2.62,3.45,2.62,1.5,0,2.97-.49,4.43-1.46M54.48,81.22c1.85-3.9,4.6-8.97,8.25-15.22,3.65-6.25,6.42-10.58,8.33-12.98.15-.15.22-.33.22-.52,0-.4-.34-.71-1.01-.94-.67-.22-1.31-.34-1.91-.34-3.15,0-5.53.48-7.13,1.42-.9.6-1.35,1.25-1.35,1.95-.1,2.25-1.79,6.56-5.06,12.94-3.28,6.38-4.91,9.91-4.91,10.61,0,1.25.42,2.31,1.28,3.19.85.87,1.62,1.31,2.32,1.31.4,0,.72-.48.98-1.42M29.28,34.72c-1.05,4.6-3,11.71-5.85,21.34-2.85,9.62-5.07,16.76-6.67,21.41l-.23.83c0,1.2,1.31,1.8,3.94,1.8s4.81-.26,6.56-.79c1.75-.53,2.95-1.11,3.6-1.76.65-.65,1.35-1.62,2.1-2.92,2.15-3.7,8.41-11.43,18.79-23.18,10.37-11.75,17.96-19.95,22.76-24.6.45-.45.67-.85.67-1.2,0-.85-1.3-1.28-3.9-1.28h-1.5c-3.15.1-5.35.45-6.6,1.05-.7.35-1.33,1.08-1.88,2.18-2.15,4.25-6.46,10.71-12.94,19.39-6.48,8.68-10.71,14.01-12.71,16.01-.15.15-.38.39-.68.71-.3.33-.5.54-.6.64l-.75.75c-.4.4-1,.6-1.8.6-1,0-1.5-.55-1.5-1.65s1.85-7.21,5.55-18.34c3.7-11.12,5.55-17.16,5.55-18.11,0-1.5-1.42-2.25-4.27-2.25-4.7,0-7.05.65-7.05,1.95l.15,1.58c0,.9-.25,2.85-.75,5.85"/></g></g></svg>